<svg width="270" height="89" viewBox="0 0 270 89" fill="none" xmlns="http://www.w3.org/2000/svg">
<path d="M91.99 33.3682H81.5804C80.6279 33.3682 79.7774 33.7088 79.029 34.3899C78.2806 35.0711 77.8554 35.8885 77.7533 36.8421C77.6173 37.8297 77.8384 38.6641 78.4167 39.3452C78.995 39.9923 79.7604 40.3159 80.7129 40.3159H81.0701C82.4989 40.3159 83.8086 40.5883 84.9992 41.1332C86.1899 41.6782 87.1934 42.4274 88.0099 43.381C88.8603 44.3005 89.4727 45.3904 89.8469 46.6505C90.2551 47.9106 90.3742 49.2559 90.2041 50.6862C90.034 52.1166 89.5917 53.4789 88.8773 54.7731C88.197 56.0332 87.3295 57.1401 86.2749 58.0937C85.2204 59.0132 84.0297 59.7454 82.703 60.2903C81.3763 60.8352 79.9985 61.1077 78.5698 61.1077H68.1602L68.9766 54.1601H79.3862C80.3387 54.1601 81.1892 53.8365 81.9376 53.1894C82.72 52.5083 83.1793 51.6739 83.3153 50.6862C83.4174 49.7327 83.1623 48.9323 82.5499 48.2852C81.9716 47.6041 81.2062 47.2635 80.2537 47.2635H79.8965C78.4677 47.2635 77.158 46.9911 75.9674 46.4461C74.7767 45.9012 73.7732 45.169 72.9567 44.2495C72.1403 43.2959 71.528 42.189 71.1198 40.9289C70.7456 39.6347 70.6435 38.2724 70.8136 36.8421C70.9837 35.4117 71.4089 34.0664 72.0893 32.8063C72.8037 31.5462 73.6881 30.4564 74.7427 29.5368C75.7973 28.5832 76.9879 27.834 78.3146 27.289C79.6414 26.7441 81.0191 26.4717 82.4479 26.4717H92.8575L91.99 33.3682Z" fill="#1F2937"/>
<path d="M103.012 26.4717L98.7771 61.1077H91.8373L96.0726 26.4717H103.012Z" fill="#1F2937"/>
<path d="M112.556 35.7182L109.443 61.1077H102.555L105.667 35.7182H112.556ZM113.679 26.5228L112.811 33.4193H105.923L106.79 26.5228H113.679Z" fill="#1F2937"/>
<path d="M138.578 26.4717L134.343 61.1077H119.596C118.643 61.1077 117.759 60.9374 116.942 60.5968C116.16 60.2222 115.497 59.7284 114.952 59.1154C114.408 58.4683 114 57.7361 113.728 56.9187C113.49 56.0673 113.422 55.1647 113.524 54.2112L114.646 44.9647C114.816 43.7045 115.208 42.5126 115.82 41.3887C116.432 40.2648 117.198 39.2771 118.116 38.4257C119.069 37.5743 120.123 36.9102 121.28 36.4334C122.47 35.9566 123.712 35.7182 125.005 35.7182H130.567L131.689 26.4717H138.578ZM128.271 54.2112L129.699 42.6658H124.137C123.491 42.6658 122.913 42.8872 122.402 43.3299C121.892 43.7727 121.603 44.3176 121.535 44.9647L120.719 51.8612L120.412 54.2112H128.271Z" fill="#1F2937"/>
<path d="M166.323 54.2112L165.506 61.1077H162.241C160.982 61.1077 159.825 60.8693 158.771 60.3925C157.716 59.9157 156.815 59.2516 156.066 58.4002C155.318 57.5487 154.774 56.5781 154.433 55.4883C154.093 54.3644 154.008 53.1554 154.178 51.8612L155.301 42.6658H153.719L154.586 35.7182H156.168L156.423 33.4193L157.291 26.4717H164.18L163.312 33.4193L163.057 35.7182H168.619L167.752 42.6658H162.19L161.067 51.8612C160.999 52.5083 161.152 53.0702 161.526 53.547C161.934 53.9898 162.445 54.2112 163.057 54.2112H166.323Z" fill="#3B82F6"/>
<path d="M192.149 44.9647L191.333 51.9123C191.163 53.1724 190.771 54.3644 190.159 55.4883C189.547 56.6122 188.764 57.5998 187.812 58.4513C186.893 59.2686 185.839 59.9157 184.648 60.3925C183.491 60.8693 182.284 61.1077 181.025 61.1077H177.147C175.888 61.1077 174.732 60.8693 173.677 60.3925C172.623 59.9157 171.721 59.2686 170.973 58.4513C170.224 57.5998 169.68 56.6122 169.34 55.4883C169 54.3644 168.915 53.1724 169.085 51.9123L169.901 44.9647C170.071 43.7045 170.462 42.5126 171.075 41.3887C171.687 40.2648 172.453 39.2942 173.371 38.4768C174.324 37.6254 175.378 36.9613 176.535 36.4845C177.725 36.0077 178.95 35.7693 180.209 35.7693H184.087C185.345 35.7693 186.502 36.0077 187.557 36.4845C188.645 36.9613 189.547 37.6254 190.261 38.4768C191.01 39.2942 191.554 40.2648 191.894 41.3887C192.234 42.5126 192.319 43.7045 192.149 44.9647ZM184.444 51.9123L185.26 44.9647C185.328 44.3176 185.158 43.7727 184.75 43.3299C184.376 42.8872 183.883 42.6658 183.27 42.6658H179.392C178.746 42.6658 178.168 42.8872 177.657 43.3299C177.147 43.7727 176.858 44.3176 176.79 44.9647L175.973 51.9123C175.905 52.5594 176.058 53.1043 176.433 53.547C176.807 53.9898 177.317 54.2112 177.963 54.2112H181.842C182.454 54.2112 183.015 53.9898 183.525 53.547C184.07 53.1043 184.376 52.5594 184.444 51.9123Z" fill="#3B82F6"/>
<path d="M192.437 49.5113L193.355 45.3733H205.398L204.479 49.5113H198.458H192.437Z" fill="#3B82F6"/>
<path d="M234.355 26.4717L230.119 61.1077H215.372C214.42 61.1077 213.535 60.9374 212.719 60.5968C211.936 60.2222 211.273 59.7284 210.729 59.1154C210.184 58.4683 209.776 57.7361 209.504 56.9187C209.266 56.0673 209.198 55.1647 209.3 54.2112L210.423 44.9647C210.593 43.7045 210.984 42.5126 211.596 41.3887C212.209 40.2648 212.974 39.2771 213.892 38.4257C214.845 37.5743 215.9 36.9102 217.056 36.4334C218.247 35.9566 219.488 35.7182 220.781 35.7182H226.343L227.466 26.4717H234.355ZM224.047 54.2112L225.476 42.6658H219.914C219.267 42.6658 218.689 42.8872 218.179 43.3299C217.669 43.7727 217.379 44.3176 217.311 44.9647L216.495 51.8612L216.189 54.2112H224.047Z" fill="#3B82F6"/>
<path d="M256.731 44.9647L255.914 51.9123C255.744 53.1724 255.353 54.3644 254.741 55.4883C254.128 56.6122 253.346 57.5998 252.394 58.4513C251.475 59.2686 250.42 59.9157 249.23 60.3925C248.073 60.8693 246.866 61.1077 245.607 61.1077H241.729C240.47 61.1077 239.313 60.8693 238.259 60.3925C237.204 59.9157 236.303 59.2686 235.554 58.4513C234.806 57.5998 234.262 56.6122 233.922 55.4883C233.581 54.3644 233.496 53.1724 233.666 51.9123L234.483 44.9647C234.653 43.7045 235.044 42.5126 235.657 41.3887C236.269 40.2648 237.034 39.2942 237.953 38.4768C238.905 37.6254 239.96 36.9613 241.116 36.4845C242.307 36.0077 243.532 35.7693 244.79 35.7693H248.669C249.927 35.7693 251.084 36.0077 252.138 36.4845C253.227 36.9613 254.128 37.6254 254.843 38.4768C255.591 39.2942 256.136 40.2648 256.476 41.3887C256.816 42.5126 256.901 43.7045 256.731 44.9647ZM249.026 51.9123L249.842 44.9647C249.91 44.3176 249.74 43.7727 249.332 43.3299C248.958 42.8872 248.464 42.6658 247.852 42.6658H243.974C243.328 42.6658 242.749 42.8872 242.239 43.3299C241.729 43.7727 241.44 44.3176 241.372 44.9647L240.555 51.9123C240.487 52.5594 240.64 53.1043 241.014 53.547C241.389 53.9898 241.899 54.2112 242.545 54.2112H246.423C247.036 54.2112 247.597 53.9898 248.107 53.547C248.652 53.1043 248.958 52.5594 249.026 51.9123Z" fill="#3B82F6"/>
<rect x="44.0557" y="25.5674" width="9.14054" height="39.1737" rx="3.91737" fill="#1D4ED8"/>
<path d="M12.7139 32.3674C12.7139 29.9193 14.4142 27.7997 16.804 27.2686L41.614 21.7553C44.876 21.0304 47.9702 23.5125 47.9702 26.8541V62.3778C47.9702 65.6435 45.0071 68.1083 41.796 67.5137L16.986 62.9192C14.5102 62.4608 12.7139 60.3013 12.7139 57.7834V32.3674Z" fill="#3B82F6"/>
<path d="M23.1611 43.1953L27.0785 47.7655L34.9133 38.625" stroke="#F8FAFC" stroke-width="3.1339" stroke-linecap="round" stroke-linejoin="round"/>
</svg>
